<svg width="1280" height="720" xmlns="http://www.w3.org/2000/svg" xmlns:xlink="http://www.w3.org/1999/xlink" overflow="hidden"><defs><filter id="fx0" x="-10%" y="-10%" width="120%" height="120%" filterUnits="userSpaceOnUse" primitiveUnits="userSpaceOnUse"><feComponentTransfer color-interpolation-filters="sRGB"><feFuncR type="discrete" tableValues="1 1"/><feFuncG type="discrete" tableValues="1 1"/><feFuncB type="discrete" tableValues="1 1"/><feFuncA type="linear" slope="0.4" intercept="0"/></feComponentTransfer><feGaussianBlur stdDeviation="4.44444 4.44444"/></filter><filter id="fx1" x="-10%" y="-10%" width="120%" height="120%" filterUnits="userSpaceOnUse" primitiveUnits="userSpaceOnUse"><feComponentTransfer color-interpolation-filters="sRGB"><feFuncR type="discrete" tableValues="0 0"/><feFuncG type="discrete" tableValues="0 0"/><feFuncB type="discrete" tableValues="0 0"/><feFuncA type="linear" slope="0.4" intercept="0"/></feComponentTransfer><feGaussianBlur stdDeviation="6.66667 6.66667"/></filter><filter id="fx2" x="-10%" y="-10%" width="120%" height="120%" filterUnits="userSpaceOnUse" primitiveUnits="userSpaceOnUse"><feComponentTransfer color-interpolation-filters="sRGB"><feFuncR type="discrete" tableValues="1 1"/><feFuncG type="discrete" tableValues="1 1"/><feFuncB type="discrete" tableValues="1 1"/><feFuncA type="linear" slope="0.4" intercept="0"/></feComponentTransfer><feGaussianBlur stdDeviation="4.44444 4.44444"/></filter><filter id="fx3" x="-10%" y="-10%" width="120%" height="120%" filterUnits="userSpaceOnUse" primitiveUnits="userSpaceOnUse"><feComponentTransfer color-interpolation-filters="sRGB"><feFuncR type="discrete" tableValues="0 0"/><feFuncG type="discrete" tableValues="0 0"/><feFuncB type="discrete" tableValues="0 0"/><feFuncA type="linear" slope="0.4" intercept="0"/></feComponentTransfer><feGaussianBlur stdDeviation="6.66667 6.66667"/></filter><filter id="fx4" x="-10%" y="-10%" width="120%" height="120%" filterUnits="userSpaceOnUse" primitiveUnits="userSpaceOnUse"><feComponentTransfer color-interpolation-filters="sRGB"><feFuncR type="discrete" tableValues="1 1"/><feFuncG type="discrete" tableValues="1 1"/><feFuncB type="discrete" tableValues="1 1"/><feFuncA type="linear" slope="0.4" intercept="0"/></feComponentTransfer><feGaussianBlur stdDeviation="4.44444 4.44444"/></filter><filter id="fx5" x="-10%" y="-10%" width="120%" height="120%" filterUnits="userSpaceOnUse" primitiveUnits="userSpaceOnUse"><feComponentTransfer color-interpolation-filters="sRGB"><feFuncR type="discrete" tableValues="0 0"/><feFuncG type="discrete" tableValues="0 0"/><feFuncB type="discrete" tableValues="0 0"/><feFuncA type="linear" slope="0.4" intercept="0"/></feComponentTransfer><feGaussianBlur stdDeviation="6.66667 6.66667"/></filter><filter id="fx6" x="-10%" y="-10%" width="120%" height="120%" filterUnits="userSpaceOnUse" primitiveUnits="userSpaceOnUse"><feComponentTransfer color-interpolation-filters="sRGB"><feFuncR type="discrete" tableValues="1 1"/><feFuncG type="discrete" tableValues="1 1"/><feFuncB type="discrete" tableValues="1 1"/><feFuncA type="linear" slope="0.4" intercept="0"/></feComponentTransfer><feGaussianBlur stdDeviation="4.44444 4.44444"/></filter><filter id="fx7" x="-10%" y="-10%" width="120%" height="120%" filterUnits="userSpaceOnUse" primitiveUnits="userSpaceOnUse"><feComponentTransfer color-interpolation-filters="sRGB"><feFuncR type="discrete" tableValues="0 0"/><feFuncG type="discrete" tableValues="0 0"/><feFuncB type="discrete" tableValues="0 0"/><feFuncA type="linear" slope="0.4" intercept="0"/></feComponentTransfer><feGaussianBlur stdDeviation="6.66667 6.66667"/></filter><filter id="fx8" x="-10%" y="-10%" width="120%" height="120%" filterUnits="userSpaceOnUse" primitiveUnits="userSpaceOnUse"><feComponentTransfer color-interpolation-filters="sRGB"><feFuncR type="discrete" tableValues="1 1"/><feFuncG type="discrete" tableValues="1 1"/><feFuncB type="discrete" tableValues="1 1"/><feFuncA type="linear" slope="0.4" intercept="0"/></feComponentTransfer><feGaussianBlur stdDeviation="4.44444 4.44444"/></filter><filter id="fx9" x="-10%" y="-10%" width="120%" height="120%" filterUnits="userSpaceOnUse" primitiveUnits="userSpaceOnUse"><feComponentTransfer color-interpolation-filters="sRGB"><feFuncR type="discrete" tableValues="0 0"/><feFuncG type="discrete" tableValues="0 0"/><feFuncB type="discrete" tableValues="0 0"/><feFuncA type="linear" slope="0.4" intercept="0"/></feComponentTransfer><feGaussianBlur stdDeviation="6.66667 6.66667"/></filter><filter id="fx10" x="-10%" y="-10%" width="120%" height="120%" filterUnits="userSpaceOnUse" primitiveUnits="userSpaceOnUse"><feComponentTransfer color-interpolation-filters="sRGB"><feFuncR type="discrete" tableValues="1 1"/><feFuncG type="discrete" tableValues="1 1"/><feFuncB type="discrete" tableValues="1 1"/><feFuncA type="linear" slope="0.4" intercept="0"/></feComponentTransfer><feGaussianBlur stdDeviation="4.44444 4.44444"/></filter><filter id="fx11" x="-10%" y="-10%" width="120%" height="120%" filterUnits="userSpaceOnUse" primitiveUnits="userSpaceOnUse"><feComponentTransfer color-interpolation-filters="sRGB"><feFuncR type="discrete" tableValues="0 0"/><feFuncG type="discrete" tableValues="0 0"/><feFuncB type="discrete" tableValues="0 0"/><feFuncA type="linear" slope="0.4" intercept="0"/></feComponentTransfer><feGaussianBlur stdDeviation="6.66667 6.66667"/></filter><linearGradient x1="135.5" y1="107.5" x2="322.5" y2="294.5" gradientUnits="userSpaceOnUse" spreadMethod="reflect" id="fill12"><stop offset="0" stop-color="#F2F2F2"/><stop offset="0.9" stop-color="#FFFFFF"/><stop offset="1" stop-color="#FFFFFF"/></linearGradient><linearGradient x1="496.25" y1="108.75" x2="683.75" y2="296.25" gradientUnits="userSpaceOnUse" spreadMethod="reflect" id="fill13"><stop offset="0" stop-color="#F2F2F2"/><stop offset="0.9" stop-color="#FFFFFF"/><stop offset="1" stop-color="#FFFFFF"/></linearGradient><linearGradient x1="858.5" y1="107.5" x2="1045.5" y2="294.5" gradientUnits="userSpaceOnUse" spreadMethod="reflect" id="fill14"><stop offset="0" stop-color="#F2F2F2"/><stop offset="0.9" stop-color="#FFFFFF"/><stop offset="1" stop-color="#FFFFFF"/></linearGradient><linearGradient x1="184" y1="222" x2="669" y2="707" gradientUnits="userSpaceOnUse" spreadMethod="reflect" id="fill15"><stop offset="0" stop-color="#F2F2F2"/><stop offset="0.9" stop-color="#FFFFFF"/><stop offset="1" stop-color="#FFFFFF"/></linearGradient><linearGradient x1="798.25" y1="308.75" x2="1109.75" y2="620.25" gradientUnits="userSpaceOnUse" spreadMethod="reflect" id="fill16"><stop offset="0" stop-color="#F2F2F2"/><stop offset="0.9" stop-color="#FFFFFF"/><stop offset="1" stop-color="#FFFFFF"/></linearGradient></defs><g><rect x="0" y="0" width="1280" height="720" fill="#FFFFFF"/><path d="M14 62.6824C14 31.3776 39.3775 6 70.6823 6L1209.32 6C1240.62 6 1266 31.3776 1266 62.6824L1266 657.318C1266 688.622 1240.62 714 1209.32 714L70.6823 714C39.3775 714 14 688.622 14 657.318Z" fill="#F2F2F2" fill-rule="evenodd"/><g filter="url(#fx0)" transform="translate(70 127)"><g><path d="M14.5147 31.515C14.5147 22.126 22.126 14.5147 31.515 14.5147L269.514 14.5147C278.903 14.5147 286.515 22.126 286.515 31.515L286.515 99.5141C286.515 108.903 278.903 116.514 269.514 116.514L31.515 116.514C22.126 116.514 14.5147 108.903 14.5147 99.5141Z" fill="#D0CECE" fill-rule="evenodd"/></g></g><path d="M93 167C93 157.611 100.611 150 110 150L348 150C357.389 150 365 157.611 365 167L365 234.999C365 244.388 357.389 252 348 252L110 252C100.611 252 93 244.388 93 234.999Z" fill="#D0CECE" fill-rule="evenodd"/><g filter="url(#fx1)" transform="translate(86 143)"><g><path d="M21.1421 38.1424C21.1421 28.7534 28.7534 21.1421 38.1424 21.1421L276.142 21.1421C285.531 21.1421 293.142 28.7534 293.142 38.1424L293.142 106.142C293.142 115.531 285.531 123.142 276.142 123.142L38.1424 123.142C28.7534 123.142 21.1421 115.531 21.1421 106.142Z" fill="#FF0000" fill-rule="evenodd"/></g></g><path d="M93 167C93 157.611 100.611 150 110 150L348 150C357.389 150 365 157.611 365 167L365 234.999C365 244.388 357.389 252 348 252L110 252C100.611 252 93 244.388 93 234.999Z" fill="url(#fill12)" fill-rule="evenodd"/><g filter="url(#fx2)" transform="translate(431 128)"><g><path d="M14.5147 31.6816C14.5147 22.2006 22.2006 14.5147 31.6816 14.5147L269.348 14.5147C278.829 14.5147 286.515 22.2006 286.515 31.6816L286.515 100.348C286.515 109.829 278.829 117.515 269.348 117.515L31.6816 117.515C22.2006 117.515 14.5147 109.829 14.5147 100.348Z" fill="#D0CECE" fill-rule="evenodd"/></g></g><path d="M454 168.167C454 158.686 461.686 151 471.167 151L708.833 151C718.314 151 726 158.686 726 168.167L726 236.833C726 246.314 718.314 254 708.833 254L471.167 254C461.686 254 454 246.314 454 236.833Z" fill="#D0CECE" fill-rule="evenodd"/><g filter="url(#fx3)" transform="translate(447 144)"><g><path d="M21.1422 38.3091C21.1422 28.828 28.828 21.1421 38.309 21.1421L275.975 21.1421C285.456 21.1421 293.142 28.828 293.142 38.3091L293.142 106.975C293.142 116.456 285.456 124.142 275.975 124.142L38.309 124.142C28.828 124.142 21.1422 116.456 21.1422 106.975Z" fill="#FF0000" fill-rule="evenodd"/></g></g><path d="M454 168.167C454 158.686 461.686 151 471.167 151L708.833 151C718.314 151 726 158.686 726 168.167L726 236.833C726 246.314 718.314 254 708.833 254L471.167 254C461.686 254 454 246.314 454 236.833Z" fill="url(#fill13)" fill-rule="evenodd"/><g filter="url(#fx4)" transform="translate(793 127)"><g><path d="M14.5147 31.515C14.5147 22.126 22.126 14.5147 31.515 14.5147L269.514 14.5147C278.903 14.5147 286.515 22.126 286.515 31.515L286.515 99.5141C286.515 108.903 278.903 116.514 269.514 116.514L31.515 116.514C22.126 116.514 14.5147 108.903 14.5147 99.5141Z" fill="#D0CECE" fill-rule="evenodd"/></g></g><path d="M816 167C816 157.611 823.611 150 833 150L1071 150C1080.39 150 1088 157.611 1088 167L1088 234.999C1088 244.388 1080.39 252 1071 252L833 252C823.611 252 816 244.388 816 234.999Z" fill="#D0CECE" fill-rule="evenodd"/><g filter="url(#fx5)" transform="translate(809 143)"><g><path d="M21.1422 38.1424C21.1422 28.7534 28.7534 21.1421 38.1424 21.1421L276.142 21.1421C285.531 21.1421 293.142 28.7534 293.142 38.1424L293.142 106.142C293.142 115.531 285.531 123.142 276.142 123.142L38.1424 123.142C28.7534 123.142 21.1422 115.531 21.1422 106.142Z" fill="#FF0000" fill-rule="evenodd"/></g></g><path d="M816 167C816 157.611 823.611 150 833 150L1071 150C1080.39 150 1088 157.611 1088 167L1088 234.999C1088 244.388 1080.39 252 1071 252L833 252C823.611 252 816 244.388 816 234.999Z" fill="url(#fill14)" fill-rule="evenodd"/><g filter="url(#fx6)" transform="translate(75 285)"><g><path d="M14.5147 66.6824C14.5147 37.871 37.871 14.5147 66.6824 14.5147L619.347 14.5147C648.158 14.5147 671.515 37.871 671.515 66.6824L671.515 275.347C671.515 304.158 648.158 327.515 619.347 327.515L66.6824 327.515C37.871 327.515 14.5147 304.158 14.5147 275.347Z" fill="#D0CECE" fill-rule="evenodd"/></g></g><path d="M98 360.168C98 331.356 121.356 308 150.168 308L702.832 308C731.644 308 755 331.356 755 360.168L755 568.832C755 597.644 731.644 621 702.832 621L150.168 621C121.356 621 98 597.644 98 568.832Z" fill="#D0CECE" fill-rule="evenodd"/><g filter="url(#fx7)" transform="translate(91 301)"><g><path d="M21.1421 73.3099C21.1421 44.4984 44.4984 21.1422 73.3098 21.1422L625.974 21.1422C654.786 21.1422 678.142 44.4984 678.142 73.3099L678.142 281.974C678.142 310.786 654.786 334.142 625.974 334.142L73.3098 334.142C44.4984 334.142 21.1421 310.786 21.1421 281.974Z" fill="#FF0000" fill-rule="evenodd"/></g></g><path d="M98 360.168C98 331.356 121.356 308 150.168 308L702.832 308C731.644 308 755 331.356 755 360.168L755 568.832C755 597.644 731.644 621 702.832 621L150.168 621C121.356 621 98 597.644 98 568.832Z" fill="url(#fill15)" fill-rule="evenodd"/><g filter="url(#fx8)" transform="translate(776 285)"><g><path d="M14.5147 66.1823C14.5147 37.6471 37.6471 14.5147 66.1823 14.5147L272.847 14.5147C301.382 14.5147 324.515 37.6471 324.515 66.1823L324.515 275.847C324.515 304.382 301.382 327.515 272.847 327.515L66.1823 327.515C37.6471 327.515 14.5147 304.382 14.5147 275.847Z" fill="#D0CECE" fill-rule="evenodd"/></g></g><path d="M799 359.668C799 331.132 822.132 308 850.668 308L1057.33 308C1085.87 308 1109 331.132 1109 359.668L1109 569.332C1109 597.868 1085.87 621 1057.33 621L850.668 621C822.132 621 799 597.868 799 569.332Z" fill="#D0CECE" fill-rule="evenodd"/><g filter="url(#fx9)" transform="translate(792 301)"><g><path d="M21.1422 72.8097C21.1422 44.2745 44.2745 21.1422 72.8098 21.1422L279.474 21.1422C308.01 21.1422 331.142 44.2745 331.142 72.8097L331.142 282.475C331.142 311.01 308.01 334.142 279.474 334.142L72.8098 334.142C44.2745 334.142 21.1422 311.01 21.1422 282.475Z" fill="#FF0000" fill-rule="evenodd"/></g></g><path d="M799 359.668C799 331.132 822.132 308 850.668 308L1057.33 308C1085.87 308 1109 331.132 1109 359.668L1109 569.332C1109 597.868 1085.87 621 1057.33 621L850.668 621C822.132 621 799 597.868 799 569.332Z" fill="url(#fill16)" fill-rule="evenodd"/><g filter="url(#fx10)" transform="translate(815 458)"><g><path d="M14.5147 27.5149C14.5147 20.3351 20.3351 14.5147 27.5149 14.5147L222.515 14.5147C229.694 14.5147 235.515 20.3351 235.515 27.5149L235.515 79.5145C235.515 86.6943 229.694 92.5147 222.515 92.5147L27.5149 92.5147C20.3351 92.5147 14.5147 86.6943 14.5147 79.5145Z" fill="#D0CECE" fill-rule="evenodd"/></g></g><path d="M838 494C838 486.82 843.82 481 851 481L1046 481C1053.18 481 1059 486.82 1059 494L1059 546C1059 553.18 1053.18 559 1046 559L851 559C843.82 559 838 553.18 838 546Z" fill="#D0CECE" fill-rule="evenodd"/><g filter="url(#fx11)" transform="translate(831 474)"><g><path d="M21.1422 34.1424C21.1422 26.9625 26.9625 21.1422 34.1423 21.1422L229.142 21.1422C236.322 21.1422 242.142 26.9625 242.142 34.1424L242.142 86.142C242.142 93.3218 236.322 99.1422 229.142 99.1422L34.1423 99.1422C26.9625 99.1422 21.1422 93.3218 21.1422 86.142Z" fill="#D0CECE" fill-rule="evenodd"/></g></g><path d="M838 494C838 486.82 843.82 481 851 481L1046 481C1053.18 481 1059 486.82 1059 494L1059 546C1059 553.18 1053.18 559 1046 559L851 559C843.82 559 838 553.18 838 546Z" fill="#D0CECE" fill-rule="evenodd"/></g></svg>